# xmcd
#
# Track frame offsets:
#	150
#	19052
#	38007
#	57832
#	78752
#
# Disc length: 1311 seconds
#
# Revision: 0
# Processed by: cddbd v1.5.2PL0 Copyright (c) Steve Scherf et al.
# Submitted via: dBpowerAMP V4.0
#
DISCID=2d051d05
DTITLE=Wesside Goon Squad - Higher
DYEAR=1996
DGENRE=Rap
TTITLE0=Higher - lp radio edit
TTITLE1=Higher - remix radio edit
TTITLE2=Higher - lp clean
TTITLE3=Higher - remix instrumental
TTITLE4=Higher - instrumental
EXTD=
EXTT0=
EXTT1=
EXTT2=
EXTT3=
EXTT4=
PLAYORDER=
